<svg id="Capa_1" enable-background="new 0 0 512 512" height="512" viewBox="0 0 512 512" width="512" xmlns="http://www.w3.org/2000/svg"><g><path d="m271 203.067v-19.427c23.061-6.545 40-27.792 40-52.921 0-30.327-24.673-55-55-55s-55 24.673-55 55h30c0-13.785 11.215-25 25-25s25 11.215 25 25-11.215 25-25 25h-15v47.349l-241 201.796v31.418h512v-31.418zm-225.964 203.215 210.964-176.647 210.964 176.647z"/><path d="m158.132 350.704v25.241h195.736v-25.241l-97.868-81.949zm52.413-4.76 45.455-38.061 45.455 38.061z"/></g></svg>