<?xml version="1.0" encoding="iso-8859-1"?>
<!-- Generator: Adobe Illustrator 19.0.0, SVG Export Plug-In . SVG Version: 6.00 Build 0)  -->
<svg version="1.1" id="Layer_1" xmlns="http://www.w3.org/2000/svg" xmlns:xlink="http://www.w3.org/1999/xlink" x="0px" y="0px"
	 viewBox="0 0 469.333 469.333" style="enable-background:new 0 0 469.333 469.333;" xml:space="preserve">
<g>
	<g>
		<path d="M458.667,106.667h-96V53.333c0-2.833-1.125-5.542-3.125-7.542L316.875,3.125c-2-2-4.708-3.125-7.542-3.125H160
			c-2.833,0-5.542,1.125-7.542,3.125l-42.667,42.667c-2,2-3.125,4.708-3.125,7.542v53.333h-96C4.771,106.667,0,111.437,0,117.333
			v309.333c0,23.531,19.135,42.667,42.667,42.667h384c23.531,0,42.667-19.135,42.667-42.667V117.333
			C469.333,111.437,464.563,106.667,458.667,106.667z M320,36.417l21.333,21.333v48.917H320V36.417z M170.667,21.333h128v21.333
			h-128V21.333z M170.667,64h128v42.667h-128V64z M128,57.75l21.333-21.333v70.25H128V57.75z M448,426.667
			c0,11.76-9.573,21.333-21.333,21.333h-384c-11.76,0-21.333-9.573-21.333-21.333V128H448V426.667z"/>
	</g>
</g>
<g>
</g>
<g>
</g>
<g>
</g>
<g>
</g>
<g>
</g>
<g>
</g>
<g>
</g>
<g>
</g>
<g>
</g>
<g>
</g>
<g>
</g>
<g>
</g>
<g>
</g>
<g>
</g>
<g>
</g>
</svg>
