<?xml version="1.0"?>
<svg xmlns="http://www.w3.org/2000/svg" id="outline" viewBox="0 0 512 512" width="512" height="512"><path d="M480,16H304a8.00008,8.00008,0,0,0-8,8V87.05566L238.29785,58.20459,223.42773,21.02881A7.97179,7.97179,0,0,0,216,16.00421V16H120v.00421a7.97179,7.97179,0,0,0-7.42773,5.0246L97.70215,58.20508,36.42188,88.84473a8.00046,8.00046,0,0,0-4.35157,6.09814l-16,120a7.99972,7.99972,0,0,0,1.9502,6.37207L56,264.04187V328a8.00008,8.00008,0,0,0,8,8H272a8.00008,8.00008,0,0,0,8-8V264.04187l16-18V328a8.00008,8.00008,0,0,0,8,8h48a8.00041,8.00041,0,0,0,7.84473-6.43115L392,168.792l32.15527,160.77686A8.00041,8.00041,0,0,0,432,336h48a8.00008,8.00008,0,0,0,8-8V24A8.00008,8.00008,0,0,0,480,16ZM224.57227,66.97119a7.99855,7.99855,0,0,0,3.84961,4.18408l60.209,30.104,14.95508,112.165-55.92871,62.91943-21.208-21.2085,36.06055-50.48535a8.00043,8.00043,0,0,0,.84375-7.80127l-24-56-14.707,6.30274L243.86719,192H176V67.747l36.66211-30.55164ZM168,53.58643,142.09619,32h51.80762ZM47.36914,101.25928l60.209-30.104a7.99855,7.99855,0,0,0,3.84961-4.18408l11.91016-29.77588L160,67.74707V192H92.13281l19.22071-44.84863-14.707-6.30274-24,56a8.00043,8.00043,0,0,0,.84375,7.80127l36.06055,50.48535-21.208,21.2085L32.41406,213.42432ZM72,282.04187l10.02051,11.27307a8.00049,8.00049,0,0,0,11.63672.3418l32-32a8.00011,8.00011,0,0,0,.85254-10.30664L95.54565,208H160V320H72ZM264,320H176V208h64.45435l-30.96412,43.3501a8.00011,8.00011,0,0,0,.85254,10.30664l32,32A8.00105,8.00105,0,0,0,248,296c.07812,0,.15625-.001.23535-.00342a8.00022,8.00022,0,0,0,5.74414-2.68164L264,282.04187Zm208,0H438.55859L399.84473,126.43115a8.00008,8.00008,0,0,0-15.68946,0L345.44141,320H312V228.04187l5.97949-6.72693a7.99972,7.99972,0,0,0,1.9502-6.37207L312,155.47021V32H472Z"/><path d="M376,48H360a7.99481,7.99481,0,0,0-.44556,15.97748,71.00582,71.00582,0,0,1-11.52319,31.55377l-2.6875,4.03076,13.3125,8.876,2.6875-4.03125A86.94183,86.94183,0,0,0,375.62109,64H376a8,8,0,0,0,0-16Z"/><path d="M408,64h.37891a86.94512,86.94512,0,0,0,14.27734,40.40723l2.6875,4.03076,13.3125-8.876-2.6875-4.03027a71.00905,71.00905,0,0,1-11.52319-31.55426A7.99481,7.99481,0,0,0,424,48H408a8,8,0,0,0,0,16Z"/><rect x="64" y="384" width="16" height="16"/><rect x="64" y="352" width="16" height="16"/><path d="M432,448H384V432a8.00008,8.00008,0,0,0-8-8h-8V368a8.00008,8.00008,0,0,0-8-8H344a7.99836,7.99836,0,0,0-4.4375,1.34375L317.57812,376H307.31348l-15.03711-15.03809a30.60263,30.60263,0,0,0-38.18653-4.10156l-106.416,68.41016A7.99953,7.99953,0,0,0,144,432v8h-8a8.00008,8.00008,0,0,0-8,8H80V416H64v40a8.00008,8.00008,0,0,0,8,8h56v24a8.00008,8.00008,0,0,0,8,8H376a8.00008,8.00008,0,0,0,8-8V464h56a8.00008,8.00008,0,0,0,8-8V416H432ZM160,436.36768l102.74219-66.04883a14.60235,14.60235,0,0,1,18.2207,1.95752l17.37988,17.38037A8.00076,8.00076,0,0,0,304,392h16a7.99836,7.99836,0,0,0,4.4375-1.34375L346.42188,376H352v47.05566l-28.42188-14.21093a8.001,8.001,0,0,0-6.3125-.36328L230.59082,440H160ZM368,480H144V456h88a8.01119,8.01119,0,0,0,2.73438-.48145L319.5,424.69434l28.92188,14.46093A7.99934,7.99934,0,0,0,352,440h16Z"/><rect x="432" y="384" width="16" height="16"/><rect x="432" y="352" width="16" height="16"/></svg>
