<svg id="Layer_1" enable-background="new 0 0 512 512" height="50" viewBox="0 0 512 512" width="50" xmlns="http://www.w3.org/2000/svg"><g><g><g><g><g><g id="XMLID_1595_"><g id="XMLID_1596_"><g id="XMLID_1597_"><g id="XMLID_1598_"><g id="XMLID_1599_"><g id="XMLID_1600_"><g id="XMLID_1601_"><g id="XMLID_1783_"><g id="XMLID_1784_"><g id="XMLID_1785_"><g id="XMLID_1788_"><g id="XMLID_1789_"><g id="XMLID_1836_"><g id="XMLID_1837_"><g id="XMLID_1838_"><circle cx="256" cy="256" fill="#08475e" r="256"/></g></g></g></g></g></g></g></g></g></g></g></g></g></g></g></g></g></g></g><path d="m512 256c0-6.865-.278-13.665-.808-20.393l-181.488-181.488-226.139 339.828 53.045 53.137-4.599 3.219 57.467 57.468c15.088 2.77 30.634 4.229 46.522 4.229 141.385 0 256-114.615 256-256z" fill="#05303d"/><g><path d="m408.435 152.147v181.994l-79.082 12.516v27.968h-146.706v-25.533l-79.082-14.952v-181.993c0-23.804 19.29-43.095 43.084-43.095h218.701c23.794 0 43.085 19.291 43.085 43.095z" fill="#ffa07a"/><path d="m408.43 152.15v181.99l-79.08 12.52v27.97h-73.35v-265.58h109.35c23.79 0 43.08 19.29 43.08 43.1z" fill="#ff6b6b"/><g><g><path d="m152.011 208.201h30.636v166.425h-30.636z" fill="#ff6b6b"/></g><g><path d="m329.353 208.201h30.636v166.425h-30.636z" fill="#ff405c"/></g></g><path d="m314.694 121.637h-117.388c-10.376 0-18.865-8.489-18.865-18.865v-37.295c0-10.375 8.489-18.864 18.865-18.864h117.388c10.376 0 18.865 8.489 18.865 18.864v37.296c-.001 10.375-8.49 18.864-18.865 18.864z" fill="#fff"/><path d="m333.56 65.48v37.29c0 2.2-.38 4.32-1.08 6.28-2.6 7.32-9.61 12.59-17.79 12.59h-58.69v-75.03h58.69c10.38 0 18.87 8.49 18.87 18.87z" fill="#e7f9fb"/><path d="m103.565 334.141h48.446v59.806h-48.446z" fill="#fff"/><path d="m359.989 334.141h48.446v59.806h-48.446z" fill="#e7f9fb"/><path d="m152.011 366.345h208.363v83.959h-208.363z" fill="#45f6ff"/><path d="m256 366.34h104.37v83.96h-104.37z" fill="#5ecbf1"/></g></g></svg>